<svg width="56" height="56" viewBox="0 0 56 56" fill="none" xmlns="http://www.w3.org/2000/svg">
<rect width="56" height="56" rx="8" fill="#0062D4" fill-opacity="0.05"/>
<path opacity="0.2" d="M34.9835 11.3335H21.0168C14.9502 11.3335 11.3335 14.9502 11.3335 21.0168V34.9668C11.3335 41.0502 14.9502 44.6668 21.0168 44.6668H34.9668C41.0335 44.6668 44.6502 41.0502 44.6502 34.9835V21.0168C44.6668 14.9502 41.0502 11.3335 34.9835 11.3335Z" fill="#0062D4"/>
<path d="M31.7664 28L29.2498 27.1167V21.4667H29.8498C31.1998 21.4667 32.2998 22.65 32.2998 24.1C32.2998 24.7833 32.8664 25.35 33.5498 25.35C34.2331 25.35 34.7998 24.7833 34.7998 24.1C34.7998 21.2667 32.5831 18.9667 29.8498 18.9667H29.2498V18C29.2498 17.3167 28.6831 16.75 27.9998 16.75C27.3164 16.75 26.7498 17.3167 26.7498 18V18.9667H25.6664C23.1998 18.9667 21.1831 21.05 21.1831 23.6C21.1831 26.5833 22.9164 27.5333 24.2331 28L26.7498 28.8833V34.5167H26.1498C24.7998 34.5167 23.6998 33.3333 23.6998 31.8833C23.6998 31.2 23.1331 30.6333 22.4498 30.6333C21.7664 30.6333 21.1998 31.2 21.1998 31.8833C21.1998 34.7167 23.4164 37.0167 26.1498 37.0167H26.7498V38C26.7498 38.6833 27.3164 39.25 27.9998 39.25C28.6831 39.25 29.2498 38.6833 29.2498 38V37.0333H30.3331C32.7998 37.0333 34.8164 34.95 34.8164 32.4C34.7998 29.4 33.0664 28.45 31.7664 28ZM25.0664 25.65C24.2164 25.35 23.6998 25.0667 23.6998 23.6167C23.6998 22.4333 24.5831 21.4833 25.6831 21.4833H26.7664V26.25L25.0664 25.65ZM30.3331 34.5333H29.2498V29.7667L30.9331 30.35C31.7831 30.65 32.2998 30.9333 32.2998 32.3833C32.2998 33.5667 31.4164 34.5333 30.3331 34.5333Z" fill="#0062D4"/>
</svg>
