<svg width="56" height="56" viewBox="0 0 56 56" fill="none" xmlns="http://www.w3.org/2000/svg">
<rect width="56" height="56" rx="8" fill="#0062D4" fill-opacity="0.05"/>
<path d="M38.4668 24.2667V29.5C38.4668 29.8333 38.4502 30.1667 38.4168 30.4833C38.1168 34.0167 36.0335 35.7834 32.2001 35.7834H31.6835C31.3501 35.7834 31.0335 35.9334 30.8501 36.2L29.2835 38.3C28.5835 39.2333 27.4668 39.2333 26.7668 38.3L25.2002 36.2C25.0335 35.9834 24.6502 35.7834 24.3668 35.7834H23.8502C19.6668 35.7834 17.5835 34.75 17.5835 29.5167V24.2833C17.5835 20.45 19.3502 18.3667 22.8835 18.0667C23.2002 18.0334 23.5335 18.0167 23.8668 18.0167H32.2501C36.3668 18 38.4668 20.1 38.4668 24.2667Z" fill="#0062D4"/>
<path opacity="0.2" d="M34.9834 11.3335H21.0334C14.9668 11.3335 11.3501 14.9502 11.3501 21.0168V34.9668C11.3501 41.0335 14.9668 44.6501 21.0334 44.6501H34.9834C41.0501 44.6501 44.6667 41.0335 44.6667 34.9668V21.0168C44.6667 14.9502 41.0501 11.3335 34.9834 11.3335Z" fill="#0062D4"/>
</svg>
