<svg width="56" height="56" viewBox="0 0 56 56" fill="none" xmlns="http://www.w3.org/2000/svg">
<rect width="56" height="56" rx="8" fill="#0062D4" fill-opacity="0.05"/>
<path opacity="0.2" d="M38 39.4334H36.7333C35.4 39.4334 34.1333 39.95 33.2 40.8834L30.35 43.7001C29.05 44.9834 26.9333 44.9834 25.6333 43.7001L22.7833 40.8834C21.85 39.95 20.5667 39.4334 19.25 39.4334H18C15.2333 39.4334 13 37.2168 13 34.4834V16.3C13 13.5667 15.2333 11.3501 18 11.3501H38C40.7667 11.3501 43 13.5667 43 16.3V34.4834C43 37.2001 40.7667 39.4334 38 39.4334Z" fill="#0062D4"/>
<path d="M35.6331 23.9502C35.3165 23.5002 34.7831 23.2502 34.1498 23.2502H30.8998C30.6832 23.2502 30.4832 23.1669 30.3498 23.0002C30.2165 22.8335 30.1498 22.6169 30.1831 22.3835L30.5831 19.7836C30.7498 19.0169 30.2332 18.1335 29.4665 17.8835C28.7498 17.6169 27.8998 17.9835 27.5665 18.4835L24.3331 23.2835V22.6835C24.3331 21.5169 23.8331 21.0336 22.5998 21.0336H21.7832C20.5498 21.0336 20.0498 21.5169 20.0498 22.6835V30.6502C20.0498 31.8169 20.5498 32.3002 21.7832 32.3002H22.5998C23.7665 32.3002 24.2665 31.8502 24.3165 30.7835L26.7665 32.6669C27.0998 33.0002 27.8498 33.1835 28.3831 33.1835H31.4665C32.5331 33.1835 33.5998 32.3835 33.8331 31.4002L35.7831 25.4668C35.9998 24.9335 35.9498 24.3836 35.6331 23.9502Z" fill="#0062D4"/>
</svg>
