<svg width="56" height="56" viewBox="0 0 56 56" fill="none" xmlns="http://www.w3.org/2000/svg">
<rect width="56" height="56" rx="8" fill="#0062D4" fill-opacity="0.05"/>
<path opacity="0.2" d="M38 39.4334H36.7333C35.4 39.4334 34.1333 39.95 33.2 40.8834L30.35 43.7C29.05 44.9834 26.9334 44.9834 25.6334 43.7L22.7833 40.8834C21.85 39.95 20.5667 39.4334 19.25 39.4334H18C15.2333 39.4334 13 37.2168 13 34.4834V16.3C13 13.5667 15.2333 11.3501 18 11.3501H38C40.7667 11.3501 43 13.5667 43 16.3V34.4834C43 37.2001 40.7667 39.4334 38 39.4334Z" fill="#0062D4"/>
<path d="M28.0001 25.3501C30.1448 25.3501 31.8834 23.6116 31.8834 21.4669C31.8834 19.3222 30.1448 17.5835 28.0001 17.5835C25.8554 17.5835 24.1167 19.3222 24.1167 21.4669C24.1167 23.6116 25.8554 25.3501 28.0001 25.3501Z" fill="#0062D4"/>
<path d="M32.4668 33.1003C33.8168 33.1003 34.6001 31.6003 33.8501 30.4837C32.7168 28.8003 30.5168 27.667 28.0001 27.667C25.4835 27.667 23.2834 28.8003 22.1501 30.4837C21.4001 31.6003 22.1835 33.1003 23.5335 33.1003H32.4668Z" fill="#0062D4"/>
</svg>
