<svg width="56" height="56" viewBox="0 0 56 56" fill="none" xmlns="http://www.w3.org/2000/svg">
<rect width="56" height="56" rx="8" fill="#0062D4" fill-opacity="0.05"/>
<path opacity="0.2" d="M36.3335 38.7165H29.6668L22.2501 43.6498C21.1501 44.3832 19.6668 43.5998 19.6668 42.2665V38.7165C14.6668 38.7165 11.3335 35.3831 11.3335 30.3831L11.3335 20.3831C11.3335 15.3831 14.6668 12.0498 19.6668 12.0498L36.3335 12.0498C41.3335 12.0498 44.6668 15.3831 44.6668 20.3831V30.3831C44.6668 35.3831 41.3335 38.7165 36.3335 38.7165Z" fill="#0062D4"/>
<path d="M28 28.1831C27.3167 28.1831 26.75 27.6164 26.75 26.9331V26.5832C26.75 24.6498 28.1667 23.6998 28.7 23.3331C29.3167 22.9165 29.5166 22.6332 29.5166 22.1998C29.5166 21.3665 28.8334 20.6831 28 20.6831C27.1667 20.6831 26.4834 21.3665 26.4834 22.1998C26.4834 22.8832 25.9167 23.4498 25.2334 23.4498C24.5501 23.4498 23.9834 22.8832 23.9834 22.1998C23.9834 19.9832 25.7834 18.1831 28 18.1831C30.2167 18.1831 32.0166 19.9832 32.0166 22.1998C32.0166 24.0998 30.6167 25.0498 30.1 25.3998C29.45 25.8331 29.25 26.1165 29.25 26.5832V26.9331C29.25 27.6331 28.6834 28.1831 28 28.1831Z" fill="#0062D4"/>
<path d="M28 32.3335C27.3 32.3335 26.75 31.7668 26.75 31.0835C26.75 30.4002 27.3167 29.8335 28 29.8335C28.6833 29.8335 29.25 30.4002 29.25 31.0835C29.25 31.7668 28.7 32.3335 28 32.3335Z" fill="#0062D4"/>
</svg>
