<svg width="56" height="56" viewBox="0 0 56 56" fill="none" xmlns="http://www.w3.org/2000/svg">
<rect width="56" height="56" rx="8" fill="#0062D4" fill-opacity="0.05"/>
<path opacity="0.2" d="M38 39.4334H36.7333C35.4 39.4334 34.1333 39.9501 33.2 40.8834L30.35 43.7001C29.05 44.9834 26.9333 44.9834 25.6333 43.7001L22.7833 40.8834C21.85 39.9501 20.5667 39.4334 19.25 39.4334H18C15.2333 39.4334 13 37.2168 13 34.4834L13 16.3001C13 13.5668 15.2333 11.3501 18 11.3501L38 11.3501C40.7667 11.3501 43 13.5668 43 16.3001V34.4834C43 37.2001 40.7667 39.4334 38 39.4334Z" fill="#0062D4"/>
<path d="M28.4667 32.9332C28.2167 33.0165 27.8 33.0165 27.5333 32.9332C25.3667 32.1832 20.5 29.0999 20.5 23.8499C20.5 21.5332 22.3667 19.6665 24.6667 19.6665C26.0333 19.6665 27.2333 20.3165 28 21.3332C28.7667 20.3165 29.9667 19.6665 31.3333 19.6665C33.6333 19.6665 35.5 21.5332 35.5 23.8499C35.4833 29.0999 30.6333 32.1832 28.4667 32.9332Z" fill="#0062D4"/>
</svg>
