<svg width="56" height="56" viewBox="0 0 56 56" fill="none" xmlns="http://www.w3.org/2000/svg">
<rect width="56" height="56" rx="8" fill="#0062D4" fill-opacity="0.05"/>
<path d="M34.1477 16C31.6415 16 29.3984 17.1865 28 19.0067C26.6015 17.1865 24.3584 16 21.8523 16C17.6015 16 14.1538 19.3708 14.1538 23.5371C14.1538 25.1416 14.4169 26.6247 14.8738 28C17.0615 34.7416 23.8046 38.773 27.1415 39.8787C27.6123 40.0404 28.3877 40.0404 28.8584 39.8787C32.1953 38.773 38.9384 34.7416 41.1261 28C41.583 26.6247 41.8461 25.1416 41.8461 23.5371C41.8461 19.3708 38.3984 16 34.1477 16Z" fill="#0062D4"/>
</svg>
