<svg width="56" height="56" viewBox="0 0 56 56" fill="none" xmlns="http://www.w3.org/2000/svg">
<rect width="56" height="56" rx="8" fill="#0062D4" fill-opacity="0.05"/>
<path d="M35.5737 16.6777L35.4731 22.1239C35.4587 22.8711 35.9329 23.8626 36.5364 24.3081L40.1001 27.0096C42.3849 28.734 42.0113 30.8464 39.2811 31.7085L34.6396 33.1599C33.8637 33.4042 33.0446 34.252 32.8434 35.0423L31.7369 39.2671C30.8604 42.6008 28.6762 42.9314 26.8656 39.9999L24.3365 35.9045C23.8767 35.1573 22.7845 34.5969 21.9224 34.64L17.1228 34.8843C13.6885 35.0567 12.7113 33.0737 14.953 30.4584L17.7982 27.1533C18.3299 26.5354 18.5742 25.3858 18.3299 24.6099L16.8642 19.9541C16.0164 17.2238 17.5396 15.715 20.2555 16.6059L24.4946 17.9998C25.213 18.2297 26.2908 18.0716 26.8943 17.6261L31.3202 14.4361C33.72 12.726 35.6311 13.7319 35.5737 16.6777Z" fill="#0062D4"/>
<path d="M41.537 40.1438L37.1829 35.7897C36.7662 35.373 36.0764 35.373 35.6597 35.7897C35.243 36.2064 35.243 36.8962 35.6597 37.3129L40.0138 41.667C40.2293 41.8825 40.5023 41.9831 40.7754 41.9831C41.0484 41.9831 41.3214 41.8825 41.537 41.667C41.9537 41.2502 41.9537 40.5605 41.537 40.1438Z" fill="#0062D4"/>
</svg>
