<svg width="56" height="56" viewBox="0 0 56 56" fill="none" xmlns="http://www.w3.org/2000/svg">
<rect width="56" height="56" rx="8" fill="#0062D4" fill-opacity="0.05"/>
<path d="M23.0146 36.9591V22.9297C23.0146 22.3773 23.1803 21.8388 23.4841 21.3831L27.2539 15.7769C27.8476 14.8793 29.3251 14.2441 30.5817 14.7136C31.9349 15.1693 32.8325 16.6882 32.5425 18.0414L31.8245 22.5568C31.7692 22.9711 31.8797 23.3439 32.1144 23.6339C32.3492 23.8962 32.6944 24.0619 33.0672 24.0619H38.7425C39.8334 24.0619 40.7724 24.5038 41.3247 25.2771C41.8494 26.0228 41.9461 26.9893 41.6009 27.9697L38.204 38.3123C37.7759 40.0246 35.9118 41.4192 34.0614 41.4192H28.6761C27.751 41.4192 26.453 41.1016 25.8592 40.5079L24.0917 39.1408C23.4151 38.6299 23.0146 37.8152 23.0146 36.9591Z" fill="#0062D4"/>
<path d="M18.6234 20.2377H17.2012C15.0609 20.2377 14.1909 21.0662 14.1909 23.1099V37.0012C14.1909 39.0449 15.0609 39.8734 17.2012 39.8734H18.6234C20.7638 39.8734 21.6337 39.0449 21.6337 37.0012V23.1099C21.6337 21.0662 20.7638 20.2377 18.6234 20.2377Z" fill="#0062D4"/>
</svg>
