<svg width="56" height="56" viewBox="0 0 56 56" fill="none" xmlns="http://www.w3.org/2000/svg">
<rect width="56" height="56" rx="10" fill="#303030" fill-opacity="0.05"/>
<path opacity="0.4" d="M31.3335 16.3333V24.6666H29.6668C26.9168 24.6666 24.6668 26.9166 24.6668 29.6666V31.3333H16.3335C13.5668 31.3333 11.3335 29.0999 11.3335 26.3333V16.3333C11.3335 13.5666 13.5668 11.3333 16.3335 11.3333H26.3335C29.1002 11.3333 31.3335 13.5666 31.3335 16.3333Z" fill="#303030"/>
<path d="M16.6667 19.05C16.2833 19.05 15.8833 18.8666 15.65 18.5166C15.25 17.95 15.3833 17.1667 15.95 16.7667C17.25 15.85 19 15.8333 20.3167 16.7333C20.8833 17.1166 21.0333 17.9 20.65 18.4667C20.2667 19.0334 19.4833 19.1833 18.9167 18.7999C18.4667 18.4999 17.8667 18.5 17.4167 18.8166C17.1667 18.9833 16.9167 19.05 16.6667 19.05Z" fill="#303030"/>
<path d="M23.3332 19.05C22.9498 19.05 22.5498 18.8666 22.3165 18.5166C21.9165 17.95 22.0498 17.1667 22.6165 16.7667C23.9165 15.85 25.6665 15.8333 26.9832 16.7333C27.5498 17.1166 27.6998 17.9 27.3165 18.4667C26.9332 19.0334 26.1498 19.1833 25.5832 18.7999C25.1332 18.4999 24.5332 18.5 24.0832 18.8166C23.8332 18.9833 23.5832 19.05 23.3332 19.05Z" fill="#303030"/>
<path d="M21.6002 28.2833H17.7335C16.5502 28.2833 15.5835 27.3167 15.5835 26.1333C15.5835 22.9667 18.1668 20.3833 21.3335 20.3833C22.6335 20.3833 23.9168 20.8333 24.9335 21.65C25.4668 22.0833 25.5668 22.8666 25.1335 23.4C24.7002 23.9333 23.9168 24.0333 23.3835 23.6C22.8002 23.1333 22.1002 22.8833 21.3502 22.8833C19.6835 22.8833 18.3002 24.15 18.1168 25.7833H21.6168C22.3002 25.7833 22.8668 26.35 22.8668 27.0333C22.8668 27.7166 22.2835 28.2833 21.6002 28.2833Z" fill="#303030"/>
<path d="M38.3667 35.8001C38.25 35.6668 38.0834 35.6001 37.9 35.6001H31.4334C31.25 35.6001 31.0834 35.6668 30.9667 35.8001C30.85 35.9334 30.7834 36.1167 30.8167 36.2834C31.0334 38.2501 32.6834 39.7501 34.6667 39.7501C36.65 39.7501 38.3 38.2667 38.5167 36.2834C38.5334 36.1001 38.4834 35.9334 38.3667 35.8001Z" fill="#303030"/>
<path d="M39.6665 24.6667H29.6665C26.9165 24.6667 24.6665 26.9167 24.6665 29.6667V39.6667C24.6665 42.4167 26.9165 44.6667 29.6665 44.6667H39.6665C42.4165 44.6667 44.6665 42.4167 44.6665 39.6667V29.6667C44.6665 26.9167 42.4165 24.6667 39.6665 24.6667ZM28.9832 29.9501C29.3832 29.3834 30.1665 29.2501 30.7332 29.6501C31.1832 29.9667 31.7832 29.9667 32.2332 29.6667C32.7998 29.2667 33.5832 29.4168 33.9665 30.0001C34.3498 30.5668 34.2165 31.3501 33.6332 31.7334C32.9832 32.1667 32.2332 32.4001 31.4832 32.4001C30.6998 32.4001 29.9332 32.1667 29.2832 31.7C28.7165 31.2834 28.5832 30.5001 28.9832 29.9501ZM34.6665 41.6167C31.4998 41.6167 28.9165 39.0334 28.9165 35.8667C28.9165 34.6834 29.8832 33.7167 31.0665 33.7167H38.2665C39.4498 33.7167 40.4165 34.6834 40.4165 35.8667C40.4165 39.0334 37.8332 41.6167 34.6665 41.6167ZM40.2998 31.7167C39.6498 32.15 38.8998 32.3834 38.1498 32.3834C37.3665 32.3834 36.5998 32.1501 35.9498 31.6835C35.3832 31.2835 35.2498 30.5 35.6498 29.9334C36.0498 29.3667 36.8332 29.2334 37.3998 29.6334C37.8498 29.95 38.4498 29.9501 38.8998 29.6501C39.4665 29.2501 40.2498 29.4001 40.6332 29.9834C41.0165 30.5668 40.8665 31.3334 40.2998 31.7167Z" fill="#303030"/>
</svg>
