<svg width="56" height="56" viewBox="0 0 56 56" fill="none" xmlns="http://www.w3.org/2000/svg">
<rect width="56" height="56" rx="10" fill="#303030" fill-opacity="0.05"/>
<path opacity="0.2" d="M37.2167 20.9499C37.1001 20.9333 36.9834 20.9333 36.8667 20.9499C34.2834 20.8666 32.2334 18.7499 32.2334 16.1499C32.2334 13.4999 34.3834 11.3333 37.0501 11.3333C39.7001 11.3333 41.8667 13.4833 41.8667 16.1499C41.8501 18.7499 39.8001 20.8666 37.2167 20.9499Z" fill="#303030"/>
<path opacity="0.2" d="M42.6498 32.4999C40.7832 33.7499 38.1665 34.2166 35.7498 33.8999C36.3832 32.5333 36.7165 31.0166 36.7332 29.4166C36.7332 27.7499 36.3665 26.1666 35.6665 24.7833C38.1332 24.4499 40.7498 24.9166 42.6332 26.1666C45.2665 27.8999 45.2665 30.7499 42.6498 32.4999Z" fill="#303030"/>
<path opacity="0.2" d="M18.7335 20.9499C18.8502 20.9333 18.9668 20.9333 19.0835 20.9499C21.6668 20.8666 23.7168 18.7499 23.7168 16.1499C23.7168 13.4999 21.5668 11.3333 18.9002 11.3333C16.2502 11.3333 14.0835 13.4833 14.0835 16.1499C14.1002 18.7499 16.1502 20.8666 18.7335 20.9499Z" fill="#303030"/>
<path opacity="0.2" d="M18.9169 29.4167C18.9169 31.0334 19.2669 32.5667 19.9002 33.95C17.5502 34.2 15.1002 33.7 13.3002 32.5167C10.6669 30.7667 10.6669 27.9167 13.3002 26.1667C15.0835 24.9667 17.6002 24.4833 19.9669 24.75C19.2835 26.15 18.9169 27.7334 18.9169 29.4167Z" fill="#303030"/>
<path d="M28.2 34.45C28.0667 34.4333 27.9167 34.4333 27.7667 34.45C24.7 34.35 22.25 31.8333 22.25 28.7333C22.25 25.5667 24.8 23 27.9833 23C31.15 23 33.7167 25.5667 33.7167 28.7333C33.7167 31.8333 31.2833 34.35 28.2 34.45Z" fill="#303030"/>
<path d="M22.7835 37.8999C20.2668 39.5832 20.2668 42.3499 22.7835 44.0166C25.6502 45.9332 30.3502 45.9332 33.2168 44.0166C35.7335 42.3332 35.7335 39.5666 33.2168 37.8999C30.3668 35.9832 25.6668 35.9832 22.7835 37.8999Z" fill="#303030"/>
</svg>
