<svg width="56" height="56" viewBox="0 0 56 56" fill="none" xmlns="http://www.w3.org/2000/svg">
<rect width="56" height="56" rx="10" fill="#303030" fill-opacity="0.05"/>
<path opacity="0.2" d="M26.2665 11.5166L17.0998 14.9499C15.3498 15.6166 13.9165 17.6832 13.9165 19.5666V33.0666C13.9165 34.4166 14.7998 36.1999 15.8832 36.9999L25.0498 43.8499C26.6665 45.0666 29.3165 45.0666 30.9332 43.8499L40.0998 36.9999C41.1832 36.1832 42.0665 34.4166 42.0665 33.0666V19.5666C42.0665 17.6999 40.6332 15.6166 38.8832 14.9666L29.7165 11.5332C28.7832 11.1666 27.2165 11.1666 26.2665 11.5166Z" fill="#303030"/>
<path d="M28.0002 35.0833C23.6335 35.0833 20.0835 31.5333 20.0835 27.1667C20.0835 22.8 23.6335 19.25 28.0002 19.25C32.3668 19.25 35.9168 22.8 35.9168 27.1667C35.9168 31.5333 32.3668 35.0833 28.0002 35.0833ZM28.0002 21.75C25.0168 21.75 22.5835 24.1833 22.5835 27.1667C22.5835 30.15 25.0168 32.5833 28.0002 32.5833C30.9835 32.5833 33.4168 30.15 33.4168 27.1667C33.4168 24.1833 30.9835 21.75 28.0002 21.75Z" fill="#303030"/>
<path d="M26.3336 30.0834C25.917 30.0834 25.5003 29.8668 25.267 29.4834C24.917 28.8834 25.1003 28.1168 25.7003 27.7668L26.967 27.0001C27.1003 26.9168 27.167 26.7834 27.167 26.6501V25.1001C27.167 24.4168 27.7336 23.8501 28.417 23.8501C29.1003 23.8501 29.667 24.4001 29.667 25.0834V26.6334C29.667 27.6501 29.117 28.6168 28.2503 29.1334L26.967 29.9001C26.7836 30.0334 26.5503 30.0834 26.3336 30.0834Z" fill="#303030"/>
</svg>
