<svg width="56" height="56" viewBox="0 0 56 56" fill="none" xmlns="http://www.w3.org/2000/svg">
<rect width="56" height="56" rx="10" fill="#303030" fill-opacity="0.05"/>
<path opacity="0.2" d="M38 39.4334H36.7333C35.4 39.4334 34.1333 39.95 33.2 40.8834L30.35 43.7001C29.05 44.9834 26.9333 44.9834 25.6333 43.7001L22.7833 40.8834C21.85 39.95 20.5667 39.4334 19.25 39.4334H18C15.2333 39.4334 13 37.2168 13 34.4834V16.3C13 13.5667 15.2333 11.3501 18 11.3501H38C40.7667 11.3501 43 13.5667 43 16.3V34.4834C43 37.2001 40.7667 39.4334 38 39.4334Z" fill="#303030"/>
<path d="M25.2999 32.1833H20.8332C20.0999 32.1833 19.4166 31.8333 18.9832 31.2333C18.5666 30.6666 18.4665 29.9667 18.6665 29.3C19.2499 27.5167 20.6832 26.55 21.9499 25.6833C23.2832 24.7833 24.0332 24.2167 24.0332 23.25C24.0332 22.3834 23.3332 21.6833 22.4665 21.6833C21.5999 21.6833 20.8999 22.3834 20.8999 23.25C20.8999 23.9334 20.3332 24.5 19.6499 24.5C18.9666 24.5 18.3999 23.9334 18.3999 23.25C18.3999 21.0167 20.2165 19.1833 22.4665 19.1833C24.7165 19.1833 26.5332 21 26.5332 23.25C26.5332 25.6 24.7666 26.8 23.3499 27.7666C22.4666 28.3666 21.6332 28.9333 21.2165 29.6833H25.2832C25.9666 29.6833 26.5332 30.25 26.5332 30.9333C26.5332 31.6167 25.9832 32.1833 25.2999 32.1833Z" fill="#303030"/>
<path d="M34.7334 32.1834C34.0501 32.1834 33.4834 31.6167 33.4834 30.9334V29.7834H30.2168C30.2168 29.7834 30.2168 29.7834 30.2001 29.7834C29.3835 29.7834 28.6335 29.3501 28.2168 28.6501C27.8001 27.9334 27.8001 27.0501 28.2168 26.3501C29.3501 24.4001 30.6668 22.1833 31.8668 20.25C32.4001 19.4 33.4168 19.0168 34.3668 19.2834C35.3168 19.5668 35.9835 20.4334 35.9668 21.4334V27.3001H36.3335C37.0168 27.3001 37.5835 27.8668 37.5835 28.5501C37.5835 29.2334 37.0168 29.8001 36.3335 29.8001H35.9834V30.9501C35.9834 31.6334 35.4334 32.1834 34.7334 32.1834ZM33.4834 22.4001C32.5001 24.0001 31.4834 25.7167 30.5668 27.2834H33.4834V22.4001Z" fill="#303030"/>
</svg>
