<svg width="1203" height="439" viewBox="0 0 1203 439" fill="none" xmlns="http://www.w3.org/2000/svg">
<rect x="128.421" y="371.419" width="56" height="56" rx="8" transform="rotate(13 128.421 371.419)" fill="#0062D4" fill-opacity="0.05"/>
<path opacity="0.2" d="M156.577 418.39L155.342 418.105C154.043 417.805 152.693 418.023 151.573 418.723L148.163 420.826C146.607 421.784 144.545 421.308 143.567 419.765L141.424 416.38C140.724 415.26 139.59 414.468 138.307 414.172L137.089 413.891C134.393 413.268 132.716 410.606 133.331 407.943L137.421 390.226C138.036 387.562 140.711 385.905 143.407 386.527L162.894 391.026C165.59 391.649 167.267 394.311 166.652 396.974L162.562 414.691C161.951 417.338 159.272 419.012 156.577 418.39Z" fill="#0062D4"/>
<path d="M157.754 402.771C157.546 402.261 157.083 401.898 156.466 401.755L153.299 401.024C153.088 400.975 152.912 400.849 152.819 400.657C152.727 400.464 152.711 400.238 152.796 400.018L153.77 397.575C154.105 396.865 153.801 395.888 153.11 395.472C152.471 395.051 151.561 395.217 151.124 395.63L146.893 399.579L147.028 398.995C147.291 397.858 146.912 397.274 145.71 396.997L144.915 396.813C143.713 396.536 143.117 396.894 142.855 398.031L141.063 405.794C140.8 406.93 141.179 407.514 142.38 407.791L143.176 407.975C144.313 408.237 144.901 407.911 145.19 406.883L147.153 409.269C147.403 409.669 148.093 410.017 148.612 410.137L151.617 410.83C152.656 411.07 153.875 410.531 154.324 409.625L157.559 404.282C157.89 403.811 157.965 403.264 157.754 402.771Z" fill="#0062D4"/>
<rect x="173.781" y="46.1694" width="56" height="56" rx="8" transform="rotate(-8 173.781 46.1694)" fill="#0062D4" fill-opacity="0.05"/>
<path opacity="0.2" d="M210.001 52.5237L196.171 54.4675C190.163 55.3118 187.085 59.3967 187.929 65.4043L189.871 79.2185C190.717 85.2427 194.802 88.3208 200.81 87.4765L214.624 85.535C220.632 84.6907 223.71 80.6059 222.865 74.5982L220.922 60.7675C220.094 54.7576 216.009 51.6794 210.001 52.5237Z" fill="#0062D4"/>
<path d="M209.136 69.4758L206.521 68.9513L205.734 63.3563L206.329 63.2728C207.665 63.0849 208.919 64.1037 209.121 65.5396C209.216 66.2162 209.856 66.6985 210.533 66.6034C211.21 66.5083 211.692 65.8683 211.597 65.1916C211.203 62.3859 208.687 60.4167 205.981 60.7972L205.387 60.8807L205.252 59.9234C205.157 59.2467 204.517 58.7644 203.84 58.8595C203.163 58.9546 202.681 59.5946 202.776 60.2713L202.911 61.2286L201.838 61.3794C199.395 61.7227 197.688 64.0664 198.043 66.5916C198.458 69.5459 200.307 70.2454 201.676 70.5243L204.291 71.0487L205.075 76.6273L204.481 76.7108C203.144 76.8986 201.89 75.8799 201.688 74.444C201.593 73.7673 200.953 73.2851 200.276 73.3802C199.6 73.4753 199.117 74.1153 199.213 74.792C199.607 77.5977 202.122 79.5668 204.829 79.1864L205.423 79.1029L205.56 80.0767C205.655 80.7534 206.295 81.2357 206.972 81.1406C207.648 81.0455 208.131 80.4054 208.035 79.7288L207.901 78.7715L208.974 78.6207C211.416 78.2774 213.123 75.9337 212.769 73.4085C212.335 70.44 210.486 69.7405 209.136 69.4758ZM202.174 68.0812C201.291 67.9024 200.739 67.6937 200.538 66.2578C200.373 65.086 201.116 64.0223 202.205 63.8692L203.278 63.7184L203.941 68.4387L202.174 68.0812ZM208.626 76.1451L207.553 76.2958L206.89 71.5756L208.638 71.9189C209.521 72.0977 210.072 72.3064 210.274 73.7423C210.439 74.9141 209.699 75.9943 208.626 76.1451Z" fill="#0062D4"/>
<rect x="1010.05" y="349.41" width="56" height="56" rx="8" transform="rotate(19 1010.05 349.41)" fill="#0062D4" fill-opacity="0.05"/>
<path opacity="0.2" d="M1033.14 399.066L1031.94 398.654C1030.68 398.22 1029.32 398.296 1028.13 398.874L1024.52 400.61C1022.87 401.4 1020.87 400.711 1020.06 399.074L1018.28 395.483C1017.7 394.297 1016.66 393.39 1015.41 392.962L1014.23 392.555C1011.61 391.654 1010.22 388.831 1011.11 386.247L1017.03 369.054C1017.92 366.47 1020.76 365.101 1023.37 366.001L1042.28 372.513C1044.9 373.414 1046.29 376.237 1045.4 378.821L1039.48 396.014C1038.59 398.582 1035.76 399.967 1033.14 399.066Z" fill="#0062D4"/>
<path d="M1026.24 389.817C1025.98 389.814 1025.58 389.678 1025.36 389.513C1023.55 388.098 1019.96 383.598 1021.67 378.635C1022.42 376.444 1024.79 375.287 1026.97 376.036C1028.26 376.481 1029.18 377.486 1029.58 378.697C1030.63 377.985 1031.98 377.761 1033.27 378.206C1035.45 378.955 1036.6 381.328 1035.85 383.518C1034.12 388.477 1028.53 389.813 1026.24 389.817Z" fill="#0062D4"/>
<rect x="1134.11" y="211.201" width="56" height="56" rx="8" transform="rotate(-15 1134.11 211.201)" fill="#0062D4" fill-opacity="0.05"/>
<path opacity="0.2" d="M1179.23 239.195L1172.79 240.92L1166.9 247.605C1166.03 248.598 1164.39 248.225 1164.05 246.937L1163.13 243.508C1158.3 244.803 1154.22 242.445 1152.92 237.616L1150.34 227.957C1149.04 223.127 1151.4 219.044 1156.23 217.75L1172.33 213.437C1177.16 212.143 1181.24 214.5 1182.53 219.329L1185.12 228.989C1186.42 233.818 1184.06 237.901 1179.23 239.195Z" fill="#0062D4"/>
<path d="M1168.45 231.177C1167.79 231.354 1167.1 230.953 1166.92 230.293L1166.83 229.955C1166.33 228.088 1167.45 226.803 1167.87 226.311C1168.36 225.749 1168.48 225.424 1168.37 225.005C1168.15 224.2 1167.32 223.717 1166.51 223.933C1165.71 224.148 1165.22 224.985 1165.44 225.79C1165.62 226.45 1165.22 227.144 1164.56 227.321C1163.9 227.498 1163.2 227.097 1163.02 226.437C1162.45 224.296 1163.72 222.092 1165.87 221.518C1168.01 220.944 1170.21 222.217 1170.78 224.358C1171.28 226.193 1170.17 227.473 1169.76 227.945C1169.25 228.532 1169.13 228.857 1169.25 229.308L1169.34 229.646C1169.52 230.322 1169.11 231 1168.45 231.177Z" fill="#0062D4"/>
<path d="M1169.53 235.186C1168.85 235.367 1168.17 234.962 1168 234.302C1167.82 233.642 1168.22 232.948 1168.88 232.771C1169.54 232.594 1170.23 232.995 1170.41 233.655C1170.59 234.315 1170.2 235.004 1169.53 235.186Z" fill="#0062D4"/>
<rect x="0.195801" y="201.434" width="56" height="56" rx="8" transform="rotate(-12 0.195801 201.434)" fill="#0062D4" fill-opacity="0.05"/>
<path d="M42.8671 217.172L43.9551 222.291C44.0244 222.617 44.0774 222.947 44.1107 223.263C44.5519 226.782 42.8814 228.943 39.1318 229.74L38.6264 229.848C38.3004 229.917 38.0218 230.129 37.8979 230.428L36.8021 232.808C36.3114 233.867 35.2192 234.099 34.3405 233.331L32.3714 231.603C32.1633 231.426 31.7468 231.31 31.4697 231.369L30.9643 231.476C26.8724 232.346 24.6197 231.768 23.5316 226.649L22.4436 221.53C21.6466 217.781 22.9415 215.376 26.3352 214.348C26.638 214.249 26.9606 214.164 27.2867 214.094L35.4868 212.351C39.51 211.479 42.0008 213.097 42.8671 217.172Z" fill="#0062D4"/>
<path opacity="0.2" d="M36.7707 205.246L23.1255 208.146C17.1914 209.407 14.4058 213.697 15.6671 219.631L18.5675 233.276C19.8288 239.21 24.1184 241.996 30.0525 240.735L43.6976 237.834C49.6317 236.573 52.4174 232.283 51.1561 226.349L48.2557 212.704C46.9944 206.77 42.7048 203.984 36.7707 205.246Z" fill="#0062D4"/>
<rect x="1023.28" y="0.052124" width="56" height="56" rx="8" transform="rotate(7 1023.28 0.052124)" fill="#0062D4" fill-opacity="0.05"/>
<path opacity="0.2" d="M1056.19 43.8226L1054.94 43.6682C1053.61 43.5057 1052.29 43.8641 1051.25 44.6768L1048.08 47.1251C1046.63 48.2404 1044.53 47.9825 1043.4 46.5503L1040.91 43.4073C1040.1 42.3672 1038.89 41.698 1037.58 41.5375L1036.34 41.3852C1033.6 41.048 1031.65 38.5757 1031.98 35.8628L1034.2 17.8149C1034.53 15.102 1037.02 13.174 1039.77 13.5112L1059.62 15.9486C1062.36 16.2858 1064.31 18.758 1063.98 21.471L1061.76 39.5188C1061.43 42.2153 1058.94 44.1597 1056.19 43.8226Z" fill="#0062D4"/>
<path d="M1047.99 28.6254C1050.11 28.8867 1052.05 27.373 1052.31 25.2443C1052.57 23.1156 1051.06 21.178 1048.93 20.9166C1046.8 20.6552 1044.87 22.1691 1044.6 24.2978C1044.34 26.4265 1045.86 28.364 1047.99 28.6254Z" fill="#0062D4"/>
<path d="M1051.47 36.862C1052.81 37.0265 1053.77 35.6332 1053.17 34.4334C1052.25 32.6245 1050.2 31.2315 1047.7 30.9248C1045.2 30.6181 1042.88 31.4749 1041.55 33.0076C1040.67 34.0245 1041.27 35.6088 1042.61 35.7733L1051.47 36.862Z" fill="#0062D4"/>
</svg>
