<svg width="156" height="60" viewBox="0 0 156 60" fill="none" xmlns="http://www.w3.org/2000/svg">
<path fill-rule="evenodd" clip-rule="evenodd" d="M7.29825 0C3.26754 0 0 2.82113 0 6.30117V44.2066C0 47.6867 3.26754 50.5078 7.29825 50.5078H138.553H141.632H142.707L143.479 51.1254L146.398 53.4604L154.276 59.7622C154.933 60.2877 156 59.8854 156 59.1121V44.2066V43.8248V6.30117C156 2.82113 152.732 0 148.702 0H7.29825Z" fill="url(#paint0_linear_5_22962)"/>
<mask id="path-2-inside-1_5_22962" fill="white">
<path fill-rule="evenodd" clip-rule="evenodd" d="M43.9377 30.0828C45.0683 28.9057 45.759 27.3331 45.759 25.6055C45.759 21.9573 42.6789 18.9999 38.8795 18.9999C35.08 18.9999 32 21.9573 32 25.6055C32 29.2538 35.08 32.2112 38.8795 32.2112C39.2931 32.2112 39.6982 32.1762 40.0918 32.109L40.0801 33.6215C40.0776 33.9418 40.4398 34.116 40.6651 33.893C41.6474 32.9209 42.9328 31.3279 43.7191 30.3535C43.7971 30.2568 43.8702 30.1662 43.9377 30.0828Z"/>
</mask>
<path d="M43.9377 30.0828L42.7116 28.9052L42.6616 28.9573L42.6162 29.0134L43.9377 30.0828ZM40.0918 32.109L41.7917 32.1221L41.8074 30.0915L39.8057 30.4332L40.0918 32.109ZM40.0801 33.6215L38.3802 33.6084V33.6084L40.0801 33.6215ZM40.6651 33.893L41.861 35.1013L41.861 35.1013L40.6651 33.893ZM43.7191 30.3535L42.3961 29.2859L42.3961 29.286L43.7191 30.3535ZM44.059 25.6055C44.059 26.8678 43.5569 28.0252 42.7116 28.9052L45.1637 31.2605C46.5798 29.7862 47.459 27.7984 47.459 25.6055H44.059ZM38.8795 20.6999C41.8058 20.6999 44.059 22.9606 44.059 25.6055H47.459C47.459 20.954 43.5521 17.2999 38.8795 17.2999V20.6999ZM33.7 25.6055C33.7 22.9606 35.9532 20.6999 38.8795 20.6999V17.2999C34.2069 17.2999 30.3 20.954 30.3 25.6055H33.7ZM38.8795 30.5112C35.9532 30.5112 33.7 28.2505 33.7 25.6055H30.3C30.3 30.2571 34.2069 33.9112 38.8795 33.9112V30.5112ZM39.8057 30.4332C39.5064 30.4843 39.1969 30.5112 38.8795 30.5112V33.9112C39.3893 33.9112 39.8901 33.868 40.3778 33.7847L39.8057 30.4332ZM38.3918 32.0959L38.3802 33.6084L41.7801 33.6347L41.7917 32.1221L38.3918 32.0959ZM38.3802 33.6084C38.3736 34.4551 38.8662 35.1712 39.5636 35.4993C40.2804 35.8365 41.2051 35.7505 41.861 35.1013L39.4693 32.6847C39.8999 32.2585 40.5308 32.1969 41.0109 32.4227C41.4715 32.6394 41.7841 33.1083 41.7801 33.6347L38.3802 33.6084ZM41.861 35.1013C42.9256 34.0476 44.2768 32.3694 45.042 31.4211L42.3961 29.286C41.5889 30.2863 40.3691 31.7942 39.4693 32.6847L41.861 35.1013ZM45.042 31.4211C45.1203 31.3241 45.1926 31.2345 45.2592 31.1523L42.6162 29.0134C42.5479 29.0978 42.4739 29.1895 42.3961 29.2859L45.042 31.4211Z" fill="white" mask="url(#path-2-inside-1_5_22962)"/>
<path d="M40.8936 25.9818C40.837 25.941 40.771 25.9257 40.7039 25.9376L40.7041 25.9366L40.7004 25.938L40.6884 25.9402L40.6411 25.9478C40.3815 25.9901 40.1219 26.0248 39.8624 26.0518C39.3789 26.1016 38.8034 26.1322 38.3799 26.0703C37.9563 26.0083 37.4164 25.8146 36.9687 25.6286C36.7478 25.5369 36.5553 25.4485 36.4175 25.3836L36.2562 25.3065L36.2134 25.2857L36.2027 25.2793L36.1993 25.2788C36.1388 25.2482 36.0711 25.244 36.0046 25.2668C35.938 25.2896 35.8756 25.3383 35.8249 25.4069C35.7742 25.4755 35.7374 25.5611 35.7192 25.6531C35.701 25.7451 35.702 25.8395 35.7222 25.9247C35.8867 26.6142 36.1848 27.2103 36.5865 27.6531C36.9882 28.096 37.4795 28.3698 38.0107 28.4472C38.5419 28.5252 39.0945 28.404 39.6129 28.0958C40.1312 27.7875 40.5971 27.3031 40.9637 26.6912C41.0088 26.6156 41.0385 26.5258 41.049 26.4326C41.0595 26.3395 41.0504 26.2472 41.0228 26.1671C40.9952 26.087 40.9503 26.0226 40.8936 25.9818Z" fill="white"/>
<path d="M18.5451 31.4639C18.2581 31.4639 17.9998 31.3814 17.7703 31.2164C17.5407 31.0514 17.3828 30.8451 17.2967 30.5976L14.2404 22.0165C14.1973 21.8927 14.1758 21.7758 14.1758 21.6658C14.1758 21.4045 14.2691 21.1845 14.4556 21.0057C14.6421 20.8269 14.8717 20.7375 15.1444 20.7375C15.3452 20.7375 15.5246 20.7926 15.6824 20.9026C15.8546 20.9988 15.9694 21.1295 16.0268 21.2945L18.5451 29.2361L21.0419 21.4801C21.1136 21.2601 21.2428 21.0813 21.4293 20.9438C21.6302 20.8063 21.8526 20.7375 22.0965 20.7375C22.3405 20.7375 22.5557 20.8063 22.7423 20.9438C22.9432 21.0813 23.0795 21.2601 23.1512 21.4801L25.648 29.2361L28.1663 21.2945C28.2237 21.1295 28.3313 20.9988 28.4891 20.9026C28.6613 20.7926 28.8479 20.7375 29.0487 20.7375C29.3214 20.7375 29.551 20.8269 29.7375 21.0057C29.924 21.1845 30.0173 21.4045 30.0173 21.6658C30.0173 21.7758 29.9958 21.8927 29.9527 22.0165L26.8964 30.5976C26.8103 30.8451 26.6524 31.0514 26.4228 31.2164C26.1933 31.3814 25.935 31.4639 25.648 31.4639C25.361 31.4639 25.1027 31.3814 24.8731 31.2164C24.6435 31.0514 24.4785 30.8382 24.3781 30.5769L22.0965 23.7492L19.815 30.5769C19.7146 30.8382 19.5496 31.0514 19.32 31.2164C19.0904 31.3814 18.8321 31.4639 18.5451 31.4639Z" fill="white"/>
<path d="M51.9486 31.4639C51.6616 31.4639 51.4033 31.3814 51.1737 31.2164C50.9441 31.0514 50.7863 30.8451 50.7002 30.5976L47.6438 22.0165C47.6008 21.8927 47.5792 21.7758 47.5792 21.6658C47.5792 21.4045 47.6725 21.1845 47.859 21.0057C48.0456 20.8269 48.2752 20.7375 48.5478 20.7375C48.7487 20.7375 48.9281 20.7926 49.0859 20.9026C49.2581 20.9988 49.3729 21.1295 49.4303 21.2945L51.9486 29.2361L54.4453 21.4801C54.5171 21.2601 54.6462 21.0813 54.8328 20.9438C55.0337 20.8063 55.2561 20.7375 55.5 20.7375C55.7439 20.7375 55.9592 20.8063 56.1457 20.9438C56.3466 21.0813 56.4829 21.2601 56.5547 21.4801L59.0514 29.2361L61.5697 21.2945C61.6271 21.1295 61.7347 20.9988 61.8926 20.9026C62.0648 20.7926 62.2513 20.7375 62.4522 20.7375C62.7248 20.7375 62.9544 20.8269 63.141 21.0057C63.3275 21.1845 63.4208 21.4045 63.4208 21.6658C63.4208 21.7758 63.3993 21.8927 63.3562 22.0165L60.2998 30.5976C60.2137 30.8451 60.0559 31.0514 59.8263 31.2164C59.5967 31.3814 59.3384 31.4639 59.0514 31.4639C58.7645 31.4639 58.5062 31.3814 58.2766 31.2164C58.047 31.0514 57.882 30.8382 57.7815 30.5769L55.5 23.7492L53.2185 30.5769C53.118 30.8382 52.953 31.0514 52.7234 31.2164C52.4938 31.3814 52.2356 31.4639 51.9486 31.4639Z" fill="white"/>
<path d="M76.0154 31.4623C74.9823 31.4623 74.0281 31.2409 73.1527 30.798C72.2774 30.3552 71.5743 29.7186 71.0434 28.8883C70.5268 28.0579 70.2686 27.0823 70.2686 25.9613C70.2686 24.8403 70.5268 23.8647 71.0434 23.0343C71.5743 22.204 72.2774 21.5674 73.1527 21.1246C74.0281 20.6817 74.9823 20.4603 76.0154 20.4603C76.7759 20.4603 77.4288 20.5572 77.9741 20.7509C78.5337 20.9308 79.0503 21.1661 79.5238 21.4567C79.8108 21.6366 79.9543 21.8788 79.9543 22.1832C79.9543 22.3908 79.8682 22.5846 79.696 22.7645C79.5382 22.9305 79.3516 23.0136 79.1364 23.0136C78.9785 23.0136 78.8207 22.9721 78.6628 22.889C78.1893 22.6538 77.7804 22.4877 77.436 22.3908C77.106 22.2801 76.6898 22.2248 76.1876 22.2248C74.9536 22.2248 73.985 22.5707 73.2819 23.2627C72.5788 23.9408 72.2272 24.8403 72.2272 25.9613C72.2272 27.0823 72.5788 27.9887 73.2819 28.6807C73.985 29.3588 74.9536 29.6978 76.1876 29.6978C76.6898 29.6978 77.106 29.6494 77.436 29.5525C77.7804 29.4418 78.1893 29.2688 78.6628 29.0336C78.8207 28.9505 78.9785 28.909 79.1364 28.909C79.3516 28.909 79.5382 28.999 79.696 29.1789C79.8682 29.3449 79.9543 29.5318 79.9543 29.7394C79.9543 30.0438 79.8108 30.286 79.5238 30.4659C79.0503 30.7565 78.5337 30.9987 77.9741 31.1925C77.4288 31.3724 76.7759 31.4623 76.0154 31.4623Z" fill="white"/>
<path d="M83.3809 31.3585C83.1083 31.3585 82.8787 31.2686 82.6922 31.0887C82.5056 30.9088 82.4124 30.6873 82.4124 30.4244V16.9521C82.4124 16.6891 82.5056 16.4677 82.6922 16.2878C82.8787 16.0941 83.1083 15.9972 83.3809 15.9972C83.6536 15.9972 83.8832 16.0941 84.0697 16.2878C84.2706 16.4677 84.371 16.6891 84.371 16.9521V22.3701C84.9163 21.7888 85.5046 21.3252 86.136 20.9792C86.7674 20.6333 87.5135 20.4603 88.3745 20.4603C89.1637 20.4603 89.8453 20.6402 90.4192 21C91.0075 21.3598 91.4524 21.8511 91.7537 22.4739C92.0694 23.0966 92.2272 23.7817 92.2272 24.529V30.4244C92.2272 30.6873 92.1268 30.9088 91.9259 31.0887C91.7394 31.2686 91.5098 31.3585 91.2371 31.3585C90.9645 31.3585 90.7349 31.2686 90.5484 31.0887C90.3618 30.9088 90.2686 30.6873 90.2686 30.4244V24.7365C90.2686 23.0482 89.4794 22.204 87.9009 22.204C87.1835 22.204 86.5378 22.3839 85.9638 22.7437C85.4042 23.1035 84.8733 23.5879 84.371 24.1968V30.4244C84.371 30.6873 84.2706 30.9088 84.0697 31.0887C83.8832 31.2686 83.6536 31.3585 83.3809 31.3585Z" fill="white"/>
<path d="M98.3265 31.4623C97.6952 31.4623 97.1069 31.3378 96.5616 31.0887C96.0307 30.8396 95.6074 30.4797 95.2917 30.0092C94.976 29.5249 94.8182 28.9713 94.8182 28.3485C94.8182 27.3244 95.2343 26.5079 96.0665 25.899C96.9131 25.2901 98.1472 24.9856 99.7686 24.9856H102.373V24.8196C102.373 23.9062 102.136 23.2488 101.663 22.8475C101.204 22.4462 100.479 22.2455 99.4888 22.2455C98.9436 22.2455 98.4557 22.287 98.0252 22.3701C97.6091 22.4531 97.1427 22.5777 96.6262 22.7437C96.5114 22.7714 96.4181 22.7852 96.3464 22.7852C96.1311 22.7852 95.9446 22.7091 95.7867 22.5569C95.6289 22.4047 95.55 22.2178 95.55 21.9964C95.55 21.6228 95.7365 21.3598 96.1096 21.2076C97.3293 20.7094 98.5705 20.4603 99.8332 20.4603C100.823 20.4603 101.656 20.654 102.33 21.0415C103.019 21.429 103.521 21.9341 103.837 22.5569C104.167 23.1658 104.332 23.8301 104.332 24.5497V30.4244C104.332 30.6873 104.231 30.9088 104.03 31.0887C103.844 31.2686 103.614 31.3585 103.342 31.3585C103.069 31.3585 102.839 31.2686 102.653 31.0887C102.466 30.9088 102.373 30.6873 102.373 30.4244V29.8847C101.311 30.9364 99.9624 31.4623 98.3265 31.4623ZM99.0584 29.8016C99.6897 29.8016 100.3 29.6563 100.888 29.3657C101.476 29.0612 101.971 28.6876 102.373 28.2447V26.501H100.027C97.8602 26.501 96.7768 27.0477 96.7768 28.1409C96.7768 28.6392 96.949 29.0405 97.2934 29.3449C97.6521 29.6494 98.2405 29.8016 99.0584 29.8016Z" fill="white"/>
<path d="M111.151 31.4623C109.056 31.4623 108.008 30.5489 108.008 28.7222V22.287H106.48C106.365 22.287 106.265 22.2524 106.179 22.1832C106.107 22.1002 106.071 22.0033 106.071 21.8926C106.071 21.7542 106.135 21.6366 106.265 21.5397L109.192 18.7788C109.321 18.6543 109.443 18.592 109.558 18.592C109.673 18.592 109.766 18.6335 109.838 18.7166C109.924 18.7996 109.967 18.8965 109.967 19.0072V20.6679H112.399C112.643 20.6679 112.844 20.744 113.002 20.8962C113.159 21.0484 113.238 21.2422 113.238 21.4775C113.238 21.6989 113.159 21.8926 113.002 22.0587C112.844 22.2109 112.643 22.287 112.399 22.287H109.967V28.5561C109.967 29.0958 110.096 29.4418 110.354 29.594C110.627 29.7324 110.964 29.8016 111.366 29.8016C111.653 29.8016 111.94 29.7601 112.227 29.6771C112.284 29.6632 112.342 29.6494 112.399 29.6356C112.471 29.6217 112.557 29.6148 112.657 29.6148C112.858 29.6148 113.037 29.6909 113.195 29.8431C113.353 29.9815 113.432 30.1545 113.432 30.3621C113.432 30.6804 113.267 30.9226 112.937 31.0887C112.377 31.3378 111.782 31.4623 111.151 31.4623Z" fill="white"/>
<path d="M119.369 31.4623C117.274 31.4623 116.227 30.5489 116.227 28.7222V22.287H114.698C114.584 22.287 114.483 22.2524 114.397 22.1832C114.325 22.1002 114.289 22.0033 114.289 21.8926C114.289 21.7542 114.354 21.6366 114.483 21.5397L117.41 18.7788C117.54 18.6543 117.662 18.592 117.776 18.592C117.891 18.592 117.984 18.6335 118.056 18.7166C118.142 18.7996 118.185 18.8965 118.185 19.0072V20.6679H120.617C120.861 20.6679 121.062 20.744 121.22 20.8962C121.378 21.0484 121.457 21.2422 121.457 21.4775C121.457 21.6989 121.378 21.8926 121.22 22.0587C121.062 22.2109 120.861 22.287 120.617 22.287H118.185V28.5561C118.185 29.0958 118.314 29.4418 118.573 29.594C118.845 29.7324 119.183 29.8016 119.584 29.8016C119.871 29.8016 120.158 29.7601 120.445 29.6771C120.503 29.6632 120.56 29.6494 120.617 29.6356C120.689 29.6217 120.775 29.6148 120.876 29.6148C121.077 29.6148 121.256 29.6909 121.414 29.8431C121.572 29.9815 121.651 30.1545 121.651 30.3621C121.651 30.6804 121.486 30.9226 121.156 31.0887C120.596 31.3378 120 31.4623 119.369 31.4623Z" fill="white"/>
<path d="M128.56 31.4623C126.809 31.4623 125.439 30.9849 124.449 30.03C123.473 29.0612 122.985 27.705 122.985 25.9613C122.985 24.9787 123.172 24.0723 123.545 23.2419C123.918 22.4116 124.492 21.7404 125.267 21.2283C126.042 20.7163 126.996 20.4603 128.129 20.4603C129.191 20.4603 130.11 20.7025 130.884 21.1868C131.659 21.6574 132.248 22.294 132.649 23.0966C133.051 23.8854 133.252 24.7504 133.252 25.6914C133.252 25.9544 133.159 26.1758 132.972 26.3557C132.8 26.5356 132.563 26.6256 132.262 26.6256H124.965C125.08 27.5943 125.453 28.3485 126.085 28.8883C126.716 29.428 127.598 29.6978 128.732 29.6978C129.335 29.6978 129.858 29.6425 130.303 29.5318C130.762 29.4211 131.207 29.2619 131.638 29.0543C131.752 28.999 131.882 28.9713 132.025 28.9713C132.255 28.9713 132.456 29.0474 132.628 29.1996C132.8 29.3519 132.886 29.5456 132.886 29.7809C132.886 30.0853 132.7 30.3414 132.326 30.5489C131.767 30.8534 131.214 31.0817 130.669 31.234C130.124 31.3862 129.421 31.4623 128.56 31.4623ZM131.315 25.0894C131.272 24.4113 131.085 23.8439 130.755 23.3872C130.44 22.9305 130.045 22.5984 129.571 22.3908C129.098 22.1694 128.617 22.0587 128.129 22.0587C127.641 22.0587 127.161 22.1694 126.687 22.3908C126.214 22.5984 125.819 22.9305 125.503 23.3872C125.188 23.8439 125.008 24.4113 124.965 25.0894H131.315Z" fill="white"/>
<path d="M136.812 31.3585C136.54 31.3585 136.31 31.2686 136.123 31.0887C135.937 30.9088 135.844 30.6873 135.844 30.4244V21.519C135.844 21.256 135.937 21.0346 136.123 20.8547C136.31 20.6609 136.54 20.5641 136.812 20.5641C137.085 20.5641 137.314 20.6609 137.501 20.8547C137.702 21.0346 137.802 21.256 137.802 21.519V22.4116C138.807 21.1107 139.933 20.4603 141.181 20.4603H141.289C141.562 20.4603 141.784 20.5502 141.956 20.7301C142.143 20.91 142.236 21.1315 142.236 21.3944C142.236 21.6574 142.143 21.8719 141.956 22.0379C141.77 22.204 141.533 22.287 141.246 22.287H141.138C140.45 22.287 139.818 22.4531 139.244 22.7852C138.67 23.1035 138.19 23.5464 137.802 24.1138V30.4244C137.802 30.6873 137.702 30.9088 137.501 31.0887C137.314 31.2686 137.085 31.3585 136.812 31.3585Z" fill="white"/>
<defs>
<linearGradient id="paint0_linear_5_22962" x1="78" y1="69" x2="169.5" y2="-37" gradientUnits="userSpaceOnUse">
<stop stop-color="#17171A"/>
<stop offset="1" stop-color="#0062D4"/>
</linearGradient>
</defs>
</svg>
