<svg width="290" height="334" viewBox="0 0 290 334" fill="none" xmlns="http://www.w3.org/2000/svg">
<rect width="34.4335" height="35.8738" rx="8" transform="matrix(0.957577 0.288177 -0.263557 0.964644 241.947 0.106812)" fill="#0062D4" fill-opacity="0.05"/>
<path opacity="0.2" d="M256.937 29.2441L256.328 29.0695C255.687 28.8858 255.007 28.9595 254.43 29.2795L252.672 30.2404C251.871 30.6781 250.853 30.3864 250.405 29.5904L249.424 27.8439C249.104 27.2667 248.558 26.8415 247.926 26.6601L247.325 26.4878C245.995 26.1065 245.227 24.7334 245.604 23.4198L248.11 14.6807C248.487 13.367 249.865 12.6094 251.195 12.9907L260.807 15.747C262.137 16.1282 262.905 17.5014 262.528 18.815L260.022 27.5541C259.648 28.8598 258.267 29.6254 256.937 29.2441Z" fill="#0062D4"/>
<path d="M253.251 24.8064C253.119 24.812 252.919 24.7546 252.802 24.6778C251.864 24.0187 249.95 21.8662 250.673 19.343C250.993 18.2295 252.147 17.5896 253.253 17.9066C253.909 18.095 254.397 18.5727 254.625 19.167C255.133 18.784 255.8 18.637 256.457 18.8254C257.562 19.1423 258.202 20.2967 257.883 21.4102C257.151 23.9311 254.395 24.7445 253.251 24.8064Z" fill="#0062D4"/>
<rect width="34.4674" height="35.8413" rx="8" transform="matrix(0.946482 0.322758 -0.295742 0.955268 257.377 288.1)" fill="#0062D4" fill-opacity="0.05"/>
<path opacity="0.2" d="M271.377 317.763L270.775 317.568C270.141 317.362 269.459 317.412 268.871 317.711L267.08 318.61C266.264 319.02 265.257 318.693 264.837 317.881L263.917 316.102C263.618 315.514 263.087 315.07 262.461 314.866L261.867 314.673C260.551 314.246 259.832 312.846 260.254 311.547L263.063 302.9C263.486 301.6 264.89 300.891 266.206 301.319L275.716 304.409C277.032 304.836 277.751 306.235 277.329 307.535L274.52 316.182C274.1 317.474 272.693 318.191 271.377 317.763Z" fill="#0062D4"/>
<path d="M272.644 310.035C272.563 309.772 272.348 309.571 272.046 309.473L270.501 308.971C270.398 308.937 270.316 308.867 270.278 308.767C270.24 308.667 270.242 308.554 270.294 308.448L270.886 307.273C271.084 306.934 270.975 306.434 270.649 306.197C270.349 305.96 269.888 306.003 269.652 306.189L267.373 307.972L267.466 307.687C267.646 307.132 267.483 306.825 266.897 306.634L266.508 306.508C265.922 306.317 265.609 306.47 265.429 307.025L264.198 310.813C264.018 311.368 264.181 311.675 264.767 311.866L265.156 311.992C265.711 312.172 266.018 312.035 266.206 311.536L267.081 312.81C267.188 313.02 267.516 313.223 267.769 313.305L269.236 313.782C269.743 313.947 270.374 313.731 270.637 313.299L272.481 310.779C272.666 310.559 272.727 310.29 272.644 310.035Z" fill="#0062D4"/>
<rect width="34.45" height="35.858" rx="8" transform="matrix(0.952184 -0.305526 0.279681 0.960093 0 201.629)" fill="#0062D4" fill-opacity="0.05"/>
<path d="M25.8747 210.265L26.6397 212.767C26.6884 212.926 26.7292 213.088 26.7596 213.244C27.1326 214.978 26.3947 216.127 24.5618 216.687L24.3148 216.763C24.1554 216.812 24.0259 216.93 23.9772 217.084L23.5351 218.317C23.3368 218.866 22.8029 219.029 22.3318 218.685L21.2757 217.91C21.1643 217.831 20.9518 217.791 20.8163 217.833L20.5693 217.908C18.569 218.52 17.4218 218.33 16.6567 215.828L15.8917 213.325C15.3313 211.493 15.8715 210.238 17.5171 209.578C17.6637 209.516 17.8206 209.459 17.98 209.41L21.9885 208.185C23.9545 207.575 25.2656 208.272 25.8747 210.265Z" fill="#0062D4"/>
<path opacity="0.2" d="M22.3179 204.59L15.6477 206.629C12.7469 207.516 11.5463 209.774 12.4331 212.675L14.4724 219.345C15.3593 222.246 17.6173 223.446 20.5181 222.559L27.1883 220.52C30.0891 219.633 31.2897 217.375 30.4029 214.474L28.3636 207.804C27.4767 204.903 25.2187 203.703 22.3179 204.59Z" fill="#0062D4"/>
</svg>
