<svg width="237" height="280" viewBox="0 0 237 280" fill="none" xmlns="http://www.w3.org/2000/svg">
<rect y="224.725" width="56" height="56" rx="8" transform="rotate(-10 0 224.725)" fill="#0062D4" fill-opacity="0.05"/>
<path d="M29.0831 257.126L26.6469 243.309C26.551 242.765 26.6207 242.206 26.8407 241.705L29.5797 235.529C30.0085 234.542 31.3533 233.66 32.6723 233.904C34.0841 234.118 35.2318 235.458 35.1812 236.841L35.2582 241.412C35.2757 241.83 35.4492 242.178 35.7308 242.423C36.0075 242.64 36.3762 242.744 36.7434 242.679L42.3325 241.693C43.4068 241.504 44.4082 241.776 45.0864 242.442C45.7327 243.085 45.9957 244.02 45.826 245.045L44.2767 255.821C44.1524 257.581 42.5588 259.279 40.7366 259.6L35.4331 260.535C34.522 260.696 33.1885 260.608 32.5007 260.127L30.5227 259.087C29.7676 258.702 29.2318 257.969 29.0831 257.126Z" fill="#0062D4"/>
<path d="M21.8547 241.421L20.454 241.668C18.3462 242.04 17.6334 243.007 17.9882 245.019L20.4005 258.7C20.7553 260.712 21.7559 261.377 23.8637 261.005L25.2644 260.758C27.3722 260.387 28.085 259.42 27.7302 257.407L25.318 243.727C24.9631 241.714 23.9625 241.049 21.8547 241.421Z" fill="#0062D4"/>
<rect x="236.92" y="112.954" width="56" height="56" rx="8" transform="rotate(92 236.92 112.954)" fill="#0062D4" fill-opacity="0.05"/>
<path d="M219.011 147.924L213.572 147.634C212.825 147.593 211.818 148.032 211.352 148.62L208.527 152.087C206.724 154.31 204.626 153.863 203.86 151.105L202.571 146.415C202.354 145.631 201.536 144.783 200.753 144.555L196.569 143.301C193.268 142.309 193.014 140.115 196.007 138.407L200.188 136.023C200.951 135.589 201.549 134.517 201.536 133.654L201.459 128.849C201.407 125.411 203.423 124.503 205.958 126.835L209.162 129.794C209.761 130.347 210.901 130.631 211.685 130.414L216.39 129.112C219.148 128.36 220.602 129.935 219.617 132.618L218.076 136.806C217.821 137.516 217.942 138.598 218.366 139.217L221.4 143.751C223.025 146.209 221.953 148.084 219.011 147.924Z" fill="#0062D4"/>
<path d="M195.351 153.065L199.854 148.865C200.285 148.463 200.31 147.774 199.908 147.343C199.506 146.912 198.816 146.888 198.385 147.29L193.882 151.489C193.659 151.697 193.549 151.967 193.539 152.239C193.53 152.512 193.621 152.789 193.829 153.012C194.231 153.443 194.92 153.467 195.351 153.065Z" fill="#0062D4"/>
<rect x="33.1523" width="56" height="56" rx="8" transform="rotate(20 33.1523 0)" fill="#0062D4" fill-opacity="0.05"/>
<path d="M59.7683 26.7143C57.4133 25.8571 54.8997 26.2049 52.963 27.4371C52.2714 25.2483 50.5694 23.3662 48.2144 22.509C44.22 21.0552 39.8273 23.0435 38.4024 26.9585C37.8536 28.4662 37.5936 29.9499 37.5526 31.3985C37.3026 38.4818 42.2601 44.5764 45.0177 46.7566C45.4047 47.0697 46.1333 47.3349 46.6311 47.3438C50.1449 47.4462 57.8601 45.9641 62.2217 40.3774C63.1214 39.2413 63.8759 37.9376 64.4247 36.4298C65.8496 32.5148 63.7627 28.1681 59.7683 26.7143Z" fill="#0062D4"/>
</svg>
